<svg xmlns="http://www.w3.org/2000/svg" viewBox="0 0 1000 520" font-family="Segoe UI, Arial, sans-serif">
  <defs>
    <marker id="m" markerWidth="9" markerHeight="9" refX="8" refY="4.5" orient="auto">
      <path d="M0,0 L9,4.5 L0,9 z" fill="#8b949e"/>
    </marker>
    <marker id="r" markerWidth="9" markerHeight="9" refX="8" refY="4.5" orient="auto">
      <path d="M0,0 L9,4.5 L0,9 z" fill="#f85149"/>
    </marker>
  </defs>
  <rect width="1000" height="520" fill="#0d1117"/>
  <text x="500" y="36" fill="#e6edf3" font-size="19" text-anchor="middle" font-weight="600">FCCU state machine</text>
  <text x="500" y="56" fill="#8b949e" font-size="12" text-anchor="middle">startup sequenced by guards, shutdown latched by the safety circuit</text>

  <!-- return path SHUTDOWN -> OFF along the top -->
  <path d="M 905 118 L 905 92 L 95 92 L 95 118" stroke="#8b949e" stroke-width="1.6" fill="none" marker-end="url(#m)"/>
  <rect x="380" y="78" width="240" height="18" fill="#0d1117"/>
  <text x="500" y="91" fill="#8b949e" font-size="10.5" text-anchor="middle">t &#8805; 3 s &#183; anode vented, load off</text>

  <!-- main chain -->
  <g font-size="13" font-weight="600" text-anchor="middle">
    <rect x="30"  y="120" width="130" height="46" rx="8" fill="#161b22" stroke="#8b949e" stroke-width="1.5"/>
    <text x="95"  y="148" fill="#e6edf3">OFF</text>
    <rect x="192" y="120" width="130" height="46" rx="8" fill="#161b22" stroke="#58a6ff" stroke-width="1.5"/>
    <text x="257" y="148" fill="#e6edf3">PURGE</text>
    <rect x="354" y="120" width="130" height="46" rx="8" fill="#161b22" stroke="#58a6ff" stroke-width="1.5"/>
    <text x="419" y="148" fill="#e6edf3">PRESSURIZE</text>
    <rect x="516" y="120" width="130" height="46" rx="8" fill="#161b22" stroke="#58a6ff" stroke-width="1.5"/>
    <text x="581" y="148" fill="#e6edf3">WARMUP</text>
    <rect x="678" y="120" width="130" height="46" rx="8" fill="#161b22" stroke="#3fb950" stroke-width="2"/>
    <text x="743" y="148" fill="#3fb950">RUNNING</text>
    <rect x="840" y="120" width="130" height="46" rx="8" fill="#161b22" stroke="#8b949e" stroke-width="1.5"/>
    <text x="905" y="148" fill="#e6edf3">SHUTDOWN</text>
  </g>

  <!-- chain arrows -->
  <g stroke="#8b949e" stroke-width="1.8">
    <line x1="160" y1="143" x2="190" y2="143" marker-end="url(#m)"/>
    <line x1="322" y1="143" x2="352" y2="143" marker-end="url(#m)"/>
    <line x1="484" y1="143" x2="514" y2="143" marker-end="url(#m)"/>
    <line x1="646" y1="143" x2="676" y2="143" marker-end="url(#m)"/>
    <line x1="808" y1="143" x2="838" y2="143" marker-end="url(#m)"/>
  </g>

  <!-- guard labels, below the gaps, clear of boxes and drops -->
  <g fill="#8b949e" font-size="10.5" text-anchor="middle">
    <text x="175" y="185">START</text>
    <text x="337" y="185">t &#8805; 2 s</text>
    <text x="337" y="199">air displaced</text>
    <text x="499" y="185">p &#8805; 1.8 bar</text>
    <text x="499" y="199">timeout 10 s</text>
    <text x="661" y="185">T &#8805; 35 &#176;C</text>
    <text x="661" y="199">timeout 120 s</text>
    <text x="823" y="185">STOP</text>
  </g>

  <!-- fault bus: vertical drops onto one rail, rail into FAULT -->
  <g stroke="#f85149" stroke-width="1.5" stroke-dasharray="6,4" fill="none">
    <line x1="257" y1="166" x2="257" y2="330"/>
    <line x1="419" y1="166" x2="419" y2="330"/>
    <line x1="581" y1="166" x2="581" y2="330"/>
    <line x1="743" y1="166" x2="743" y2="330"/>
    <line x1="905" y1="166" x2="905" y2="330"/>
    <line x1="257" y1="330" x2="905" y2="330"/>
    <line x1="500" y1="330" x2="500" y2="356" stroke-dasharray="none" marker-end="url(#r)"/>
  </g>
  <rect x="300" y="218" width="400" height="34" fill="#0d1117"/>
  <text x="500" y="232" fill="#f85149" font-size="10.5" text-anchor="middle">safety latch from any state</text>
  <text x="500" y="246" fill="#8b949e" font-size="10" text-anchor="middle">overpressure &#183; overtemp &#183; overcurrent &#183; undervoltage &#183; sensor implausible / stuck &#183; startup timeout</text>

  <!-- FAULT box -->
  <rect x="410" y="358" width="180" height="52" rx="8" fill="#2d1416" stroke="#f85149" stroke-width="2"/>
  <text x="500" y="382" fill="#f85149" font-size="14" font-weight="600" text-anchor="middle">FAULT</text>
  <text x="500" y="399" fill="#8b949e" font-size="10" text-anchor="middle">hydrogen cut &#183; cooling 100 % &#183; latched</text>

  <!-- reset path: FAULT -> OFF, routed below everything, no crossings -->
  <path d="M 410 384 L 95 384 L 95 168" stroke="#8b949e" stroke-width="1.6" fill="none" stroke-dasharray="2,3" marker-end="url(#m)"/>
  <rect x="130" y="392" width="250" height="18" fill="#0d1117"/>
  <text x="255" y="405" fill="#8b949e" font-size="10.5" text-anchor="middle">manual RESET &#183; only after cause clears</text>

  <text x="500" y="465" fill="#8b949e" font-size="11" text-anchor="middle">Mirrors the Formula Student shutdown circuit: de-energized is the safe state, the latch survives the fault clearing,</text>
  <text x="500" y="482" fill="#8b949e" font-size="11" text-anchor="middle">and re-arming requires a human - accepted only once every persistence accumulator has drained to zero.</text>
</svg>
